<mxfile host="app.diagrams.net" agent="Mozilla/5.0 (Windows NT 10.0; Win64; x64) AppleWebKit/537.36 (KHTML, like Gecko) Chrome/131.0.0.0 Safari/537.36" version="24.8.3">
  <diagram name="Strona-1" id="eD4vRMAWY_oo2woScIVk">
    <mxGraphModel dx="2390" dy="1230" grid="1" gridSize="10" guides="1" tooltips="1" connect="1" arrows="1" fold="1" page="1" pageScale="1" pageWidth="1169" pageHeight="1654" math="0" shadow="0">
      <root>
        <mxCell id="0" />
        <mxCell id="1" parent="0" />
        <mxCell id="UC0F7FbSvSOUbJt7dbkD-14" style="edgeStyle=orthogonalEdgeStyle;curved=1;rounded=0;orthogonalLoop=1;jettySize=auto;html=1;exitX=0.5;exitY=0.5;exitDx=0;exitDy=0;exitPerimeter=0;entryX=0;entryY=0.5;entryDx=0;entryDy=0;movable=1;resizable=1;rotatable=1;deletable=1;editable=1;locked=0;connectable=1;" parent="1" source="UC0F7FbSvSOUbJt7dbkD-1" target="UC0F7FbSvSOUbJt7dbkD-13" edge="1">
          <mxGeometry relative="1" as="geometry" />
        </mxCell>
        <mxCell id="GzQ5spg6HNh2so2Kr6vH-10" style="edgeStyle=orthogonalEdgeStyle;curved=1;rounded=0;orthogonalLoop=1;jettySize=auto;html=1;exitX=1;exitY=0.3333333333333333;exitDx=0;exitDy=0;exitPerimeter=0;entryX=0;entryY=1;entryDx=0;entryDy=0;" edge="1" parent="1" source="UC0F7FbSvSOUbJt7dbkD-1" target="UC0F7FbSvSOUbJt7dbkD-10">
          <mxGeometry relative="1" as="geometry" />
        </mxCell>
        <mxCell id="UC0F7FbSvSOUbJt7dbkD-1" value="Pracownik" style="shape=umlActor;verticalLabelPosition=bottom;verticalAlign=top;html=1;outlineConnect=0;" parent="1" vertex="1">
          <mxGeometry x="220" y="457" width="30" height="60" as="geometry" />
        </mxCell>
        <mxCell id="UC0F7FbSvSOUbJt7dbkD-2" value="&lt;font style=&quot;font-size: 24px;&quot;&gt;Diagram przypadków użycia&lt;/font&gt;" style="rounded=0;whiteSpace=wrap;html=1;fillColor=none;movable=0;resizable=0;rotatable=0;deletable=0;editable=0;locked=1;connectable=0;verticalAlign=bottom;horizontal=1;labelPosition=center;verticalLabelPosition=top;align=center;" parent="1" vertex="1">
          <mxGeometry x="270" y="147" width="600" height="1363" as="geometry" />
        </mxCell>
        <mxCell id="UC0F7FbSvSOUbJt7dbkD-17" style="edgeStyle=orthogonalEdgeStyle;curved=1;rounded=0;orthogonalLoop=1;jettySize=auto;html=1;exitX=1;exitY=0.3333333333333333;exitDx=0;exitDy=0;exitPerimeter=0;" parent="1" source="UC0F7FbSvSOUbJt7dbkD-3" target="UC0F7FbSvSOUbJt7dbkD-16" edge="1">
          <mxGeometry relative="1" as="geometry">
            <Array as="points">
              <mxPoint x="260" y="827" />
              <mxPoint x="260" y="607" />
            </Array>
          </mxGeometry>
        </mxCell>
        <mxCell id="UC0F7FbSvSOUbJt7dbkD-45" style="edgeStyle=orthogonalEdgeStyle;curved=1;rounded=0;orthogonalLoop=1;jettySize=auto;html=1;exitX=1;exitY=0.3333333333333333;exitDx=0;exitDy=0;exitPerimeter=0;entryX=0;entryY=0.5;entryDx=0;entryDy=0;" parent="1" source="UC0F7FbSvSOUbJt7dbkD-3" target="UC0F7FbSvSOUbJt7dbkD-39" edge="1">
          <mxGeometry relative="1" as="geometry" />
        </mxCell>
        <mxCell id="UC0F7FbSvSOUbJt7dbkD-65" style="edgeStyle=orthogonalEdgeStyle;curved=1;rounded=0;orthogonalLoop=1;jettySize=auto;html=1;entryX=0;entryY=0;entryDx=0;entryDy=0;" parent="1" target="UC0F7FbSvSOUbJt7dbkD-61" edge="1">
          <mxGeometry relative="1" as="geometry">
            <Array as="points">
              <mxPoint x="250" y="810" />
              <mxPoint x="480" y="810" />
              <mxPoint x="480" y="1012" />
            </Array>
            <mxPoint x="250" y="827" as="sourcePoint" />
          </mxGeometry>
        </mxCell>
        <mxCell id="GzQ5spg6HNh2so2Kr6vH-4" style="edgeStyle=orthogonalEdgeStyle;curved=1;rounded=0;orthogonalLoop=1;jettySize=auto;html=1;entryX=0;entryY=0.5;entryDx=0;entryDy=0;" edge="1" parent="1" target="GzQ5spg6HNh2so2Kr6vH-1">
          <mxGeometry relative="1" as="geometry">
            <mxPoint x="240" y="827" as="sourcePoint" />
          </mxGeometry>
        </mxCell>
        <mxCell id="GzQ5spg6HNh2so2Kr6vH-39" style="edgeStyle=orthogonalEdgeStyle;curved=1;rounded=0;orthogonalLoop=1;jettySize=auto;html=1;exitX=1;exitY=1;exitDx=0;exitDy=0;exitPerimeter=0;entryX=0;entryY=0.5;entryDx=0;entryDy=0;" edge="1" parent="1" source="UC0F7FbSvSOUbJt7dbkD-3" target="GzQ5spg6HNh2so2Kr6vH-38">
          <mxGeometry relative="1" as="geometry" />
        </mxCell>
        <mxCell id="UC0F7FbSvSOUbJt7dbkD-3" value="Kadry/HR" style="shape=umlActor;verticalLabelPosition=bottom;verticalAlign=top;html=1;outlineConnect=0;" parent="1" vertex="1">
          <mxGeometry x="210" y="807" width="30" height="60" as="geometry" />
        </mxCell>
        <mxCell id="UC0F7FbSvSOUbJt7dbkD-48" style="edgeStyle=orthogonalEdgeStyle;curved=1;rounded=0;orthogonalLoop=1;jettySize=auto;html=1;exitX=0;exitY=0.3333333333333333;exitDx=0;exitDy=0;exitPerimeter=0;" parent="1" source="UC0F7FbSvSOUbJt7dbkD-4" target="UC0F7FbSvSOUbJt7dbkD-31" edge="1">
          <mxGeometry relative="1" as="geometry">
            <Array as="points">
              <mxPoint x="920" y="610" />
            </Array>
          </mxGeometry>
        </mxCell>
        <mxCell id="UC0F7FbSvSOUbJt7dbkD-49" style="edgeStyle=orthogonalEdgeStyle;curved=1;rounded=0;orthogonalLoop=1;jettySize=auto;html=1;exitX=0;exitY=0.3333333333333333;exitDx=0;exitDy=0;exitPerimeter=0;entryX=1;entryY=0.5;entryDx=0;entryDy=0;" parent="1" source="UC0F7FbSvSOUbJt7dbkD-4" target="UC0F7FbSvSOUbJt7dbkD-29" edge="1">
          <mxGeometry relative="1" as="geometry">
            <Array as="points">
              <mxPoint x="920" y="520" />
              <mxPoint x="830" y="520" />
              <mxPoint x="830" y="487" />
            </Array>
          </mxGeometry>
        </mxCell>
        <mxCell id="UC0F7FbSvSOUbJt7dbkD-50" style="edgeStyle=orthogonalEdgeStyle;curved=1;rounded=0;orthogonalLoop=1;jettySize=auto;html=1;exitX=0;exitY=0.3333333333333333;exitDx=0;exitDy=0;exitPerimeter=0;entryX=1;entryY=0;entryDx=0;entryDy=0;" parent="1" source="UC0F7FbSvSOUbJt7dbkD-4" target="UC0F7FbSvSOUbJt7dbkD-28" edge="1">
          <mxGeometry relative="1" as="geometry">
            <Array as="points">
              <mxPoint x="920" y="672" />
            </Array>
          </mxGeometry>
        </mxCell>
        <mxCell id="UC0F7FbSvSOUbJt7dbkD-4" value="Zarząd" style="shape=umlActor;verticalLabelPosition=bottom;verticalAlign=top;html=1;outlineConnect=0;" parent="1" vertex="1">
          <mxGeometry x="920" y="507" width="30" height="60" as="geometry" />
        </mxCell>
        <mxCell id="UC0F7FbSvSOUbJt7dbkD-22" style="edgeStyle=orthogonalEdgeStyle;curved=1;rounded=0;orthogonalLoop=1;jettySize=auto;html=1;exitX=0;exitY=0.3333333333333333;exitDx=0;exitDy=0;exitPerimeter=0;entryX=1;entryY=0.5;entryDx=0;entryDy=0;" parent="1" source="UC0F7FbSvSOUbJt7dbkD-5" target="UC0F7FbSvSOUbJt7dbkD-21" edge="1">
          <mxGeometry relative="1" as="geometry">
            <Array as="points">
              <mxPoint x="840" y="970" />
              <mxPoint x="840" y="1230" />
            </Array>
          </mxGeometry>
        </mxCell>
        <mxCell id="UC0F7FbSvSOUbJt7dbkD-32" style="edgeStyle=orthogonalEdgeStyle;curved=1;rounded=0;orthogonalLoop=1;jettySize=auto;html=1;exitX=0;exitY=0.3333333333333333;exitDx=0;exitDy=0;exitPerimeter=0;entryX=1;entryY=1;entryDx=0;entryDy=0;" parent="1" source="UC0F7FbSvSOUbJt7dbkD-5" target="UC0F7FbSvSOUbJt7dbkD-28" edge="1">
          <mxGeometry relative="1" as="geometry" />
        </mxCell>
        <mxCell id="UC0F7FbSvSOUbJt7dbkD-43" style="edgeStyle=orthogonalEdgeStyle;curved=1;rounded=0;orthogonalLoop=1;jettySize=auto;html=1;exitX=0;exitY=0.3333333333333333;exitDx=0;exitDy=0;exitPerimeter=0;" parent="1" source="UC0F7FbSvSOUbJt7dbkD-5" target="UC0F7FbSvSOUbJt7dbkD-23" edge="1">
          <mxGeometry relative="1" as="geometry" />
        </mxCell>
        <mxCell id="UC0F7FbSvSOUbJt7dbkD-63" style="edgeStyle=orthogonalEdgeStyle;curved=1;rounded=0;orthogonalLoop=1;jettySize=auto;html=1;exitX=0;exitY=0.3333333333333333;exitDx=0;exitDy=0;exitPerimeter=0;" parent="1" source="UC0F7FbSvSOUbJt7dbkD-5" target="UC0F7FbSvSOUbJt7dbkD-61" edge="1">
          <mxGeometry relative="1" as="geometry">
            <Array as="points">
              <mxPoint x="740" y="970" />
              <mxPoint x="740" y="1040" />
            </Array>
          </mxGeometry>
        </mxCell>
        <mxCell id="GzQ5spg6HNh2so2Kr6vH-48" style="edgeStyle=orthogonalEdgeStyle;curved=1;rounded=0;orthogonalLoop=1;jettySize=auto;html=1;exitX=0;exitY=0.3333333333333333;exitDx=0;exitDy=0;exitPerimeter=0;entryX=0.5;entryY=1;entryDx=0;entryDy=0;" edge="1" parent="1" source="UC0F7FbSvSOUbJt7dbkD-5" target="GzQ5spg6HNh2so2Kr6vH-47">
          <mxGeometry relative="1" as="geometry" />
        </mxCell>
        <mxCell id="UC0F7FbSvSOUbJt7dbkD-5" value="Kierwonictwo" style="shape=umlActor;verticalLabelPosition=bottom;verticalAlign=top;html=1;outlineConnect=0;" parent="1" vertex="1">
          <mxGeometry x="920" y="950" width="30" height="60" as="geometry" />
        </mxCell>
        <mxCell id="UC0F7FbSvSOUbJt7dbkD-19" style="edgeStyle=orthogonalEdgeStyle;curved=1;rounded=0;orthogonalLoop=1;jettySize=auto;html=1;exitX=1;exitY=0.3333333333333333;exitDx=0;exitDy=0;exitPerimeter=0;entryX=0;entryY=0.5;entryDx=0;entryDy=0;" parent="1" source="UC0F7FbSvSOUbJt7dbkD-6" target="UC0F7FbSvSOUbJt7dbkD-18" edge="1">
          <mxGeometry relative="1" as="geometry" />
        </mxCell>
        <mxCell id="UC0F7FbSvSOUbJt7dbkD-6" value="Kandydat" style="shape=umlActor;verticalLabelPosition=bottom;verticalAlign=top;html=1;outlineConnect=0;" parent="1" vertex="1">
          <mxGeometry x="200" y="1350" width="30" height="60" as="geometry" />
        </mxCell>
        <mxCell id="UC0F7FbSvSOUbJt7dbkD-10" value="wgląd do własnych danych osobowych&amp;nbsp;" style="ellipse;whiteSpace=wrap;html=1;" parent="1" vertex="1">
          <mxGeometry x="310" y="327" width="120" height="80" as="geometry" />
        </mxCell>
        <mxCell id="GzQ5spg6HNh2so2Kr6vH-44" style="edgeStyle=orthogonalEdgeStyle;curved=1;rounded=0;orthogonalLoop=1;jettySize=auto;html=1;exitX=1;exitY=0;exitDx=0;exitDy=0;entryX=0;entryY=1;entryDx=0;entryDy=0;dashed=1;" edge="1" parent="1" source="UC0F7FbSvSOUbJt7dbkD-13" target="GzQ5spg6HNh2so2Kr6vH-43">
          <mxGeometry relative="1" as="geometry" />
        </mxCell>
        <mxCell id="GzQ5spg6HNh2so2Kr6vH-56" value="include" style="edgeLabel;html=1;align=center;verticalAlign=middle;resizable=0;points=[];" vertex="1" connectable="0" parent="GzQ5spg6HNh2so2Kr6vH-44">
          <mxGeometry x="-0.4034" y="4" relative="1" as="geometry">
            <mxPoint as="offset" />
          </mxGeometry>
        </mxCell>
        <mxCell id="UC0F7FbSvSOUbJt7dbkD-13" value="lista przydzielonych szkoleń" style="ellipse;whiteSpace=wrap;html=1;" parent="1" vertex="1">
          <mxGeometry x="310" y="447" width="120" height="80" as="geometry" />
        </mxCell>
        <mxCell id="UC0F7FbSvSOUbJt7dbkD-68" value="extend" style="edgeStyle=orthogonalEdgeStyle;curved=1;rounded=0;orthogonalLoop=1;jettySize=auto;html=1;exitX=0;exitY=0.5;exitDx=0;exitDy=0;entryX=1;entryY=0.5;entryDx=0;entryDy=0;dashed=1;startArrow=none;startFill=0;" parent="1" source="UC0F7FbSvSOUbJt7dbkD-67" target="UC0F7FbSvSOUbJt7dbkD-13" edge="1">
          <mxGeometry relative="1" as="geometry">
            <Array as="points">
              <mxPoint x="450" y="487" />
              <mxPoint x="450" y="487" />
            </Array>
          </mxGeometry>
        </mxCell>
        <mxCell id="UC0F7FbSvSOUbJt7dbkD-16" value="wglad do danych osobowych pracownikow oraz ich edycja (HR)" style="ellipse;whiteSpace=wrap;html=1;" parent="1" vertex="1">
          <mxGeometry x="310" y="567" width="120" height="80" as="geometry" />
        </mxCell>
        <mxCell id="UC0F7FbSvSOUbJt7dbkD-18" value="lista upublicznionych ofert pracy" style="ellipse;whiteSpace=wrap;html=1;" parent="1" vertex="1">
          <mxGeometry x="310" y="1290" width="120" height="80" as="geometry" />
        </mxCell>
        <mxCell id="UC0F7FbSvSOUbJt7dbkD-21" value="dodawanie ofert pracy" style="ellipse;whiteSpace=wrap;html=1;" parent="1" vertex="1">
          <mxGeometry x="510" y="1290" width="120" height="80" as="geometry" />
        </mxCell>
        <mxCell id="UC0F7FbSvSOUbJt7dbkD-41" value="extend" style="edgeStyle=orthogonalEdgeStyle;curved=1;rounded=0;orthogonalLoop=1;jettySize=auto;html=1;exitX=0;exitY=0;exitDx=0;exitDy=0;entryX=1;entryY=0.5;entryDx=0;entryDy=0;dashed=1;movable=1;resizable=1;rotatable=1;deletable=1;editable=1;locked=0;connectable=1;" parent="1" source="UC0F7FbSvSOUbJt7dbkD-23" target="UC0F7FbSvSOUbJt7dbkD-39" edge="1">
          <mxGeometry relative="1" as="geometry">
            <Array as="points">
              <mxPoint x="698" y="1100" />
              <mxPoint x="440" y="1100" />
              <mxPoint x="440" y="867" />
            </Array>
          </mxGeometry>
        </mxCell>
        <mxCell id="GzQ5spg6HNh2so2Kr6vH-51" value="extend" style="edgeLabel;html=1;align=center;verticalAlign=middle;resizable=0;points=[];" vertex="1" connectable="0" parent="UC0F7FbSvSOUbJt7dbkD-41">
          <mxGeometry x="0.1973" y="-25" relative="1" as="geometry">
            <mxPoint as="offset" />
          </mxGeometry>
        </mxCell>
        <mxCell id="UC0F7FbSvSOUbJt7dbkD-23" value="przeglądanie przesłanych CV" style="ellipse;whiteSpace=wrap;html=1;" parent="1" vertex="1">
          <mxGeometry x="680" y="1080" width="120" height="80" as="geometry" />
        </mxCell>
        <mxCell id="UC0F7FbSvSOUbJt7dbkD-27" value="extend" style="edgeStyle=orthogonalEdgeStyle;curved=1;rounded=0;orthogonalLoop=1;jettySize=auto;html=1;exitX=0.5;exitY=0;exitDx=0;exitDy=0;dashed=1;dashPattern=8 8;" parent="1" source="UC0F7FbSvSOUbJt7dbkD-25" target="UC0F7FbSvSOUbJt7dbkD-18" edge="1">
          <mxGeometry relative="1" as="geometry" />
        </mxCell>
        <mxCell id="UC0F7FbSvSOUbJt7dbkD-25" value="aplikowanie na oferty pracy online" style="ellipse;whiteSpace=wrap;html=1;" parent="1" vertex="1">
          <mxGeometry x="310" y="1420" width="120" height="80" as="geometry" />
        </mxCell>
        <mxCell id="UC0F7FbSvSOUbJt7dbkD-28" value="dostep do modulu wynagrodzen" style="ellipse;whiteSpace=wrap;html=1;" parent="1" vertex="1">
          <mxGeometry x="720" y="660" width="120" height="80" as="geometry" />
        </mxCell>
        <mxCell id="UC0F7FbSvSOUbJt7dbkD-29" value="zarzadzanie ocenami pracowniczymi" style="ellipse;whiteSpace=wrap;html=1;" parent="1" vertex="1">
          <mxGeometry x="690" y="447" width="120" height="80" as="geometry" />
        </mxCell>
        <mxCell id="UC0F7FbSvSOUbJt7dbkD-59" style="edgeStyle=orthogonalEdgeStyle;curved=1;rounded=0;orthogonalLoop=1;jettySize=auto;html=1;exitX=0;exitY=0.5;exitDx=0;exitDy=0;entryX=1;entryY=0.5;entryDx=0;entryDy=0;dashed=1;startArrow=none;startFill=0;" parent="1" source="UC0F7FbSvSOUbJt7dbkD-31" target="UC0F7FbSvSOUbJt7dbkD-16" edge="1">
          <mxGeometry relative="1" as="geometry">
            <Array as="points">
              <mxPoint x="610" y="607" />
            </Array>
          </mxGeometry>
        </mxCell>
        <mxCell id="UC0F7FbSvSOUbJt7dbkD-60" value="extend" style="edgeLabel;html=1;align=center;verticalAlign=middle;resizable=0;points=[];" parent="UC0F7FbSvSOUbJt7dbkD-59" vertex="1" connectable="0">
          <mxGeometry x="-0.0475" y="3" relative="1" as="geometry">
            <mxPoint as="offset" />
          </mxGeometry>
        </mxCell>
        <mxCell id="UC0F7FbSvSOUbJt7dbkD-31" value="wgląd do historii zatrudnienia" style="ellipse;whiteSpace=wrap;html=1;" parent="1" vertex="1">
          <mxGeometry x="610" y="560" width="120" height="80" as="geometry" />
        </mxCell>
        <mxCell id="UC0F7FbSvSOUbJt7dbkD-34" value="prowadzenie rozmów kwalifikacyjnych" style="ellipse;whiteSpace=wrap;html=1;" parent="1" vertex="1">
          <mxGeometry x="525" y="1140" width="120" height="80" as="geometry" />
        </mxCell>
        <mxCell id="UC0F7FbSvSOUbJt7dbkD-44" value="extend" style="edgeStyle=orthogonalEdgeStyle;curved=1;rounded=0;orthogonalLoop=1;jettySize=auto;html=1;exitX=0.5;exitY=0;exitDx=0;exitDy=0;entryX=0.5;entryY=1;entryDx=0;entryDy=0;dashed=1;" parent="1" source="UC0F7FbSvSOUbJt7dbkD-37" target="UC0F7FbSvSOUbJt7dbkD-39" edge="1">
          <mxGeometry relative="1" as="geometry">
            <Array as="points">
              <mxPoint x="360" y="947" />
              <mxPoint x="360" y="947" />
            </Array>
          </mxGeometry>
        </mxCell>
        <mxCell id="GzQ5spg6HNh2so2Kr6vH-21" style="edgeStyle=orthogonalEdgeStyle;curved=1;rounded=0;orthogonalLoop=1;jettySize=auto;html=1;exitX=1;exitY=1;exitDx=0;exitDy=0;dashed=1;entryX=0;entryY=0;entryDx=0;entryDy=0;" edge="1" parent="1" source="UC0F7FbSvSOUbJt7dbkD-37" target="UC0F7FbSvSOUbJt7dbkD-21">
          <mxGeometry relative="1" as="geometry">
            <Array as="points">
              <mxPoint x="402" y="1100" />
              <mxPoint x="480" y="1100" />
              <mxPoint x="480" y="1230" />
              <mxPoint x="528" y="1230" />
            </Array>
          </mxGeometry>
        </mxCell>
        <mxCell id="GzQ5spg6HNh2so2Kr6vH-22" value="extend" style="edgeLabel;html=1;align=center;verticalAlign=middle;resizable=0;points=[];" vertex="1" connectable="0" parent="GzQ5spg6HNh2so2Kr6vH-21">
          <mxGeometry x="0.3191" y="2" relative="1" as="geometry">
            <mxPoint as="offset" />
          </mxGeometry>
        </mxCell>
        <mxCell id="UC0F7FbSvSOUbJt7dbkD-37" value="publikowanie ofert pracy" style="ellipse;whiteSpace=wrap;html=1;" parent="1" vertex="1">
          <mxGeometry x="300" y="940" width="120" height="80" as="geometry" />
        </mxCell>
        <mxCell id="UC0F7FbSvSOUbJt7dbkD-39" value="lista wszystkich ofert pracy" style="ellipse;whiteSpace=wrap;html=1;" parent="1" vertex="1">
          <mxGeometry x="300" y="827" width="120" height="80" as="geometry" />
        </mxCell>
        <mxCell id="UC0F7FbSvSOUbJt7dbkD-46" value="extend" style="edgeStyle=orthogonalEdgeStyle;curved=1;rounded=0;orthogonalLoop=1;jettySize=auto;html=1;exitX=1;exitY=0.5;exitDx=0;exitDy=0;entryX=0;entryY=1;entryDx=0;entryDy=0;dashed=1;" parent="1" source="UC0F7FbSvSOUbJt7dbkD-34" target="UC0F7FbSvSOUbJt7dbkD-23" edge="1">
          <mxGeometry relative="1" as="geometry" />
        </mxCell>
        <mxCell id="UC0F7FbSvSOUbJt7dbkD-51" value="zarządzanie listą szkoleń" style="ellipse;whiteSpace=wrap;html=1;" parent="1" vertex="1">
          <mxGeometry x="690" y="310" width="120" height="80" as="geometry" />
        </mxCell>
        <mxCell id="UC0F7FbSvSOUbJt7dbkD-62" value="extend" style="edgeStyle=orthogonalEdgeStyle;curved=1;rounded=0;orthogonalLoop=1;jettySize=auto;html=1;exitX=0.5;exitY=1;exitDx=0;exitDy=0;dashed=1;" parent="1" source="UC0F7FbSvSOUbJt7dbkD-54" target="UC0F7FbSvSOUbJt7dbkD-61" edge="1">
          <mxGeometry relative="1" as="geometry" />
        </mxCell>
        <mxCell id="UC0F7FbSvSOUbJt7dbkD-54" value="zarządzanie szkoleniami" style="ellipse;whiteSpace=wrap;html=1;" parent="1" vertex="1">
          <mxGeometry x="500" y="797" width="120" height="80" as="geometry" />
        </mxCell>
        <mxCell id="UC0F7FbSvSOUbJt7dbkD-61" value="lista dostępnych szkoleń" style="ellipse;whiteSpace=wrap;html=1;" parent="1" vertex="1">
          <mxGeometry x="500" y="1000" width="120" height="80" as="geometry" />
        </mxCell>
        <mxCell id="UC0F7FbSvSOUbJt7dbkD-67" value="przeglądanie materiałów szkoleniowych" style="ellipse;whiteSpace=wrap;html=1;" parent="1" vertex="1">
          <mxGeometry x="500" y="447" width="120" height="80" as="geometry" />
        </mxCell>
        <mxCell id="UC0F7FbSvSOUbJt7dbkD-74" style="edgeStyle=orthogonalEdgeStyle;curved=1;rounded=0;orthogonalLoop=1;jettySize=auto;html=1;exitX=0;exitY=0.3333333333333333;exitDx=0;exitDy=0;exitPerimeter=0;entryX=1;entryY=0.5;entryDx=0;entryDy=0;" parent="1" source="UC0F7FbSvSOUbJt7dbkD-69" target="UC0F7FbSvSOUbJt7dbkD-73" edge="1">
          <mxGeometry relative="1" as="geometry" />
        </mxCell>
        <mxCell id="UC0F7FbSvSOUbJt7dbkD-69" value="Administrator" style="shape=umlActor;verticalLabelPosition=bottom;verticalAlign=top;html=1;outlineConnect=0;" parent="1" vertex="1">
          <mxGeometry x="930" y="1210" width="30" height="60" as="geometry" />
        </mxCell>
        <mxCell id="UC0F7FbSvSOUbJt7dbkD-73" value="dodawanie, edytowanie i usuwanie kont użytkowników" style="ellipse;whiteSpace=wrap;html=1;" parent="1" vertex="1">
          <mxGeometry x="700" y="1290" width="120" height="80" as="geometry" />
        </mxCell>
        <mxCell id="GzQ5spg6HNh2so2Kr6vH-6" style="edgeStyle=orthogonalEdgeStyle;curved=1;rounded=0;orthogonalLoop=1;jettySize=auto;html=1;exitX=1;exitY=0;exitDx=0;exitDy=0;entryX=0;entryY=0.5;entryDx=0;entryDy=0;dashed=1;" edge="1" parent="1" source="GzQ5spg6HNh2so2Kr6vH-1" target="GzQ5spg6HNh2so2Kr6vH-35">
          <mxGeometry relative="1" as="geometry" />
        </mxCell>
        <mxCell id="GzQ5spg6HNh2so2Kr6vH-7" value="include" style="edgeLabel;html=1;align=center;verticalAlign=middle;resizable=0;points=[];" vertex="1" connectable="0" parent="GzQ5spg6HNh2so2Kr6vH-6">
          <mxGeometry x="0.0724" y="1" relative="1" as="geometry">
            <mxPoint as="offset" />
          </mxGeometry>
        </mxCell>
        <mxCell id="GzQ5spg6HNh2so2Kr6vH-1" value="obsługa procesu rekrutacji - onboarding" style="ellipse;whiteSpace=wrap;html=1;" vertex="1" parent="1">
          <mxGeometry x="300" y="687" width="120" height="80" as="geometry" />
        </mxCell>
        <mxCell id="GzQ5spg6HNh2so2Kr6vH-15" value="extend" style="edgeStyle=orthogonalEdgeStyle;curved=1;rounded=0;orthogonalLoop=1;jettySize=auto;html=1;dashed=1;" edge="1" parent="1" source="GzQ5spg6HNh2so2Kr6vH-11" target="UC0F7FbSvSOUbJt7dbkD-73">
          <mxGeometry relative="1" as="geometry" />
        </mxCell>
        <mxCell id="GzQ5spg6HNh2so2Kr6vH-11" value="resetowanie haseł" style="ellipse;whiteSpace=wrap;html=1;" vertex="1" parent="1">
          <mxGeometry x="700" y="1410" width="120" height="80" as="geometry" />
        </mxCell>
        <mxCell id="GzQ5spg6HNh2so2Kr6vH-14" value="" style="edgeStyle=orthogonalEdgeStyle;curved=1;rounded=0;orthogonalLoop=1;jettySize=auto;html=1;dashed=1;exitX=1;exitY=0;exitDx=0;exitDy=0;entryX=0;entryY=1;entryDx=0;entryDy=0;" edge="1" parent="1" source="GzQ5spg6HNh2so2Kr6vH-12" target="UC0F7FbSvSOUbJt7dbkD-73">
          <mxGeometry relative="1" as="geometry">
            <Array as="points">
              <mxPoint x="627" y="1400" />
              <mxPoint x="718" y="1400" />
            </Array>
          </mxGeometry>
        </mxCell>
        <mxCell id="GzQ5spg6HNh2so2Kr6vH-16" value="extend" style="edgeLabel;html=1;align=center;verticalAlign=middle;resizable=0;points=[];" vertex="1" connectable="0" parent="GzQ5spg6HNh2so2Kr6vH-14">
          <mxGeometry x="-0.0337" y="-1" relative="1" as="geometry">
            <mxPoint as="offset" />
          </mxGeometry>
        </mxCell>
        <mxCell id="GzQ5spg6HNh2so2Kr6vH-12" value="przypisywanie uprawnień i ról" style="ellipse;whiteSpace=wrap;html=1;" vertex="1" parent="1">
          <mxGeometry x="525" y="1420" width="120" height="80" as="geometry" />
        </mxCell>
        <mxCell id="GzQ5spg6HNh2so2Kr6vH-25" style="edgeStyle=orthogonalEdgeStyle;curved=1;rounded=0;orthogonalLoop=1;jettySize=auto;html=1;exitX=0.5;exitY=1;exitDx=0;exitDy=0;entryX=0.5;entryY=0;entryDx=0;entryDy=0;dashed=1;" edge="1" parent="1" source="GzQ5spg6HNh2so2Kr6vH-24" target="UC0F7FbSvSOUbJt7dbkD-10">
          <mxGeometry relative="1" as="geometry" />
        </mxCell>
        <mxCell id="GzQ5spg6HNh2so2Kr6vH-26" value="extend" style="edgeLabel;html=1;align=center;verticalAlign=middle;resizable=0;points=[];" vertex="1" connectable="0" parent="GzQ5spg6HNh2so2Kr6vH-25">
          <mxGeometry x="0.3175" y="5" relative="1" as="geometry">
            <mxPoint as="offset" />
          </mxGeometry>
        </mxCell>
        <mxCell id="GzQ5spg6HNh2so2Kr6vH-24" value="wgląd w swoje paski wynagrodzeń, historie ocen, informacje o urlopach" style="ellipse;whiteSpace=wrap;html=1;" vertex="1" parent="1">
          <mxGeometry x="300" y="180" width="140" height="87" as="geometry" />
        </mxCell>
        <mxCell id="GzQ5spg6HNh2so2Kr6vH-29" value="" style="edgeStyle=orthogonalEdgeStyle;curved=1;rounded=0;orthogonalLoop=1;jettySize=auto;html=1;dashed=1;" edge="1" parent="1" source="GzQ5spg6HNh2so2Kr6vH-28" target="GzQ5spg6HNh2so2Kr6vH-24">
          <mxGeometry relative="1" as="geometry" />
        </mxCell>
        <mxCell id="GzQ5spg6HNh2so2Kr6vH-30" value="extend" style="edgeLabel;html=1;align=center;verticalAlign=middle;resizable=0;points=[];" vertex="1" connectable="0" parent="GzQ5spg6HNh2so2Kr6vH-29">
          <mxGeometry x="-0.0171" y="-1" relative="1" as="geometry">
            <mxPoint as="offset" />
          </mxGeometry>
        </mxCell>
        <mxCell id="GzQ5spg6HNh2so2Kr6vH-28" value="składanie wniosków o urlopy, nadgodziny, benefity" style="ellipse;whiteSpace=wrap;html=1;" vertex="1" parent="1">
          <mxGeometry x="490" y="180" width="140" height="87" as="geometry" />
        </mxCell>
        <mxCell id="GzQ5spg6HNh2so2Kr6vH-32" style="edgeStyle=orthogonalEdgeStyle;curved=1;rounded=0;orthogonalLoop=1;jettySize=auto;html=1;exitX=0;exitY=1;exitDx=0;exitDy=0;entryX=1;entryY=0;entryDx=0;entryDy=0;dashed=1;" edge="1" parent="1" source="GzQ5spg6HNh2so2Kr6vH-31" target="UC0F7FbSvSOUbJt7dbkD-10">
          <mxGeometry relative="1" as="geometry">
            <Array as="points">
              <mxPoint x="708" y="280" />
              <mxPoint x="412" y="280" />
            </Array>
          </mxGeometry>
        </mxCell>
        <mxCell id="GzQ5spg6HNh2so2Kr6vH-33" value="extend" style="edgeLabel;html=1;align=center;verticalAlign=middle;resizable=0;points=[];" vertex="1" connectable="0" parent="GzQ5spg6HNh2so2Kr6vH-32">
          <mxGeometry x="-0.1827" y="3" relative="1" as="geometry">
            <mxPoint as="offset" />
          </mxGeometry>
        </mxCell>
        <mxCell id="GzQ5spg6HNh2so2Kr6vH-31" value="składanie wniosków o zmianę swoich danych osobowych" style="ellipse;whiteSpace=wrap;html=1;" vertex="1" parent="1">
          <mxGeometry x="690" y="183.5" width="120" height="80" as="geometry" />
        </mxCell>
        <mxCell id="GzQ5spg6HNh2so2Kr6vH-34" style="edgeStyle=orthogonalEdgeStyle;curved=1;rounded=0;orthogonalLoop=1;jettySize=auto;html=1;exitX=0;exitY=0.3333333333333333;exitDx=0;exitDy=0;exitPerimeter=0;entryX=0.946;entryY=0.724;entryDx=0;entryDy=0;entryPerimeter=0;" edge="1" parent="1" source="UC0F7FbSvSOUbJt7dbkD-4" target="UC0F7FbSvSOUbJt7dbkD-51">
          <mxGeometry relative="1" as="geometry">
            <Array as="points">
              <mxPoint x="920" y="520" />
              <mxPoint x="840" y="520" />
              <mxPoint x="840" y="410" />
              <mxPoint x="804" y="410" />
            </Array>
          </mxGeometry>
        </mxCell>
        <mxCell id="GzQ5spg6HNh2so2Kr6vH-35" value="planowanie rozmów kwalifikacyjnych" style="ellipse;whiteSpace=wrap;html=1;" vertex="1" parent="1">
          <mxGeometry x="460" y="660" width="120" height="80" as="geometry" />
        </mxCell>
        <mxCell id="GzQ5spg6HNh2so2Kr6vH-41" value="" style="edgeStyle=orthogonalEdgeStyle;curved=1;rounded=0;orthogonalLoop=1;jettySize=auto;html=1;dashed=1;" edge="1" parent="1" source="GzQ5spg6HNh2so2Kr6vH-38" target="GzQ5spg6HNh2so2Kr6vH-40">
          <mxGeometry relative="1" as="geometry" />
        </mxCell>
        <mxCell id="GzQ5spg6HNh2so2Kr6vH-42" value="include" style="edgeLabel;html=1;align=center;verticalAlign=middle;resizable=0;points=[];" vertex="1" connectable="0" parent="GzQ5spg6HNh2so2Kr6vH-41">
          <mxGeometry x="-0.0268" y="-1" relative="1" as="geometry">
            <mxPoint as="offset" />
          </mxGeometry>
        </mxCell>
        <mxCell id="GzQ5spg6HNh2so2Kr6vH-38" value="obsługa procesu zwalniania - offboarding" style="ellipse;whiteSpace=wrap;html=1;" vertex="1" parent="1">
          <mxGeometry x="300" y="1080" width="120" height="80" as="geometry" />
        </mxCell>
        <mxCell id="GzQ5spg6HNh2so2Kr6vH-40" value="kontrola zdania sprzętu" style="ellipse;whiteSpace=wrap;html=1;" vertex="1" parent="1">
          <mxGeometry x="310" y="1200" width="120" height="80" as="geometry" />
        </mxCell>
        <mxCell id="GzQ5spg6HNh2so2Kr6vH-43" value="przypomnienia o nadchodzących szkoleniach" style="ellipse;whiteSpace=wrap;html=1;" vertex="1" parent="1">
          <mxGeometry x="500" y="320" width="120" height="80" as="geometry" />
        </mxCell>
        <mxCell id="GzQ5spg6HNh2so2Kr6vH-50" value="include" style="edgeStyle=orthogonalEdgeStyle;curved=1;rounded=0;orthogonalLoop=1;jettySize=auto;html=1;exitX=0;exitY=0;exitDx=0;exitDy=0;entryX=1;entryY=1;entryDx=0;entryDy=0;dashed=1;" edge="1" parent="1" source="GzQ5spg6HNh2so2Kr6vH-47" target="GzQ5spg6HNh2so2Kr6vH-49">
          <mxGeometry relative="1" as="geometry" />
        </mxCell>
        <mxCell id="GzQ5spg6HNh2so2Kr6vH-47" value="wystawianie ocen pracowniczych" style="ellipse;whiteSpace=wrap;html=1;" vertex="1" parent="1">
          <mxGeometry x="700" y="820" width="120" height="80" as="geometry" />
        </mxCell>
        <mxCell id="GzQ5spg6HNh2so2Kr6vH-49" value="przypomnienia o konieczności wystawienia ocen pracowniczych" style="ellipse;whiteSpace=wrap;html=1;" vertex="1" parent="1">
          <mxGeometry x="600" y="710" width="120" height="80" as="geometry" />
        </mxCell>
        <mxCell id="GzQ5spg6HNh2so2Kr6vH-54" value="extend" style="edgeStyle=orthogonalEdgeStyle;curved=1;rounded=0;orthogonalLoop=1;jettySize=auto;html=1;exitX=1;exitY=0;exitDx=0;exitDy=0;entryX=0;entryY=1;entryDx=0;entryDy=0;dashed=1;" edge="1" parent="1" source="GzQ5spg6HNh2so2Kr6vH-52" target="GzQ5spg6HNh2so2Kr6vH-47">
          <mxGeometry relative="1" as="geometry" />
        </mxCell>
        <mxCell id="GzQ5spg6HNh2so2Kr6vH-52" value="planowanie ścieżki rozwoju pracownika" style="ellipse;whiteSpace=wrap;html=1;" vertex="1" parent="1">
          <mxGeometry x="600" y="900" width="120" height="80" as="geometry" />
        </mxCell>
      </root>
    </mxGraphModel>
  </diagram>
</mxfile>
